<svg xmlns="http://www.w3.org/2000/svg" viewBox="0 0 320 330" role="img" aria-label="Шашлычная Али Баба">
  <defs>
    <linearGradient id="logoGold" x1="0" y1="0" x2="1" y2="1">
      <stop offset="0" stop-color="#F2D48A"/>
      <stop offset="1" stop-color="#C9932E"/>
    </linearGradient>
  </defs>

  <g transform="translate(30,10)">
    <g fill="url(#logoGold)">
      <path d="M56,206 C56,192 72,182 96,182 C120,182 136,192 136,206 C136,219 120,228 96,228 C72,228 56,219 56,206 Z"/>
      <path d="M58,200 C40,197 24,190 14,178 C10,173 14,167 20,169 C33,174 40,186 56,198 Z"/>
      <ellipse cx="96" cy="180" rx="11" ry="5"/>
      <circle cx="96" cy="171" r="4"/>
      <path d="M133,193 C148,190 150,214 134,214 C142,208 142,198 133,197 Z"/>
    </g>

    <path d="M14,178 C4,160 20,148 30,132 C40,116 32,98 48,84 C56,77 62,80 62,88 C62,94 55,96 52,92 C58,104 74,104 76,90 C78,76 62,68 50,74 C56,60 76,56 90,66 C98,72 98,82 90,88" fill="none" stroke="url(#logoGold)" stroke-width="7" stroke-linecap="round"/>

    <circle cx="104" cy="56" r="16" fill="url(#logoGold)"/>
    <path d="M118,46 C132,42 136,54 128,60 C122,64 116,60 118,52 Z" fill="url(#logoGold)"/>

    <path d="M90,70 C86,86 90,100 100,108 C108,114 120,112 122,102 C124,94 116,90 112,96" fill="none" stroke="url(#logoGold)" stroke-width="9" stroke-linecap="round"/>

    <path d="M118,88 C132,84 146,78 158,68" fill="none" stroke="url(#logoGold)" stroke-width="7" stroke-linecap="round"/>
    <ellipse cx="170" cy="63" rx="15" ry="4.5" fill="url(#logoGold)"/>
    <g stroke="url(#logoGold)" stroke-width="3" stroke-linecap="round">
      <line x1="163" y1="61" x2="180" y2="45"/>
      <line x1="172" y1="61" x2="189" y2="45"/>
    </g>
    <g fill="url(#logoGold)">
      <rect x="167" y="53" width="6" height="6" rx="1.5" transform="rotate(-45 170 56)"/>
      <rect x="174" y="47" width="6" height="6" rx="1.5" transform="rotate(-45 177 50)"/>
      <rect x="176" y="57" width="6" height="6" rx="1.5" transform="rotate(-45 179 60)"/>
      <rect x="182" y="51" width="6" height="6" rx="1.5" transform="rotate(-45 185 54)"/>
    </g>
  </g>

  <text x="160" y="278" text-anchor="middle" font-family="'Playfair Display', Georgia, serif" font-weight="700" font-size="46" fill="url(#logoGold)" letter-spacing="1">Али Баба</text>
  <text x="160" y="302" text-anchor="middle" font-family="'Manrope', sans-serif" font-weight="600" font-size="12" fill="#C9B9A2" letter-spacing="6">ШАШЛЫЧНАЯ</text>
</svg>
